<mxfile host="app.diagrams.net" modified="2022-08-03T09:04:01.245Z" agent="5.0 (Windows NT 10.0; Win64; x64) AppleWebKit/537.36 (KHTML, like Gecko) Chrome/103.0.5060.134 Safari/537.36 Edg/103.0.1264.77" etag="IOXz3_5ZfWmkIsAyHiW8" version="20.2.2" type="github">
  <diagram name="Page-1" id="2c0d36ab-eaac-3732-788b-9136903baeff">
    <mxGraphModel dx="384" dy="217" grid="1" gridSize="10" guides="1" tooltips="1" connect="1" arrows="1" fold="1" page="1" pageScale="1.5" pageWidth="1169" pageHeight="827" background="none" math="0" shadow="0">
      <root>
        <mxCell id="0" />
        <mxCell id="1" parent="0" />
        <mxCell id="gX4xHvYDaLYZX3p_Ai7o-123" value="" style="endArrow=none;html=1;rounded=0;" edge="1" parent="1">
          <mxGeometry width="50" height="50" relative="1" as="geometry">
            <mxPoint x="360" y="200" as="sourcePoint" />
            <mxPoint x="560" y="200" as="targetPoint" />
          </mxGeometry>
        </mxCell>
        <mxCell id="gX4xHvYDaLYZX3p_Ai7o-124" value="" style="endArrow=none;html=1;rounded=0;" edge="1" parent="1">
          <mxGeometry width="50" height="50" relative="1" as="geometry">
            <mxPoint x="360" y="220" as="sourcePoint" />
            <mxPoint x="560" y="220" as="targetPoint" />
          </mxGeometry>
        </mxCell>
        <mxCell id="gX4xHvYDaLYZX3p_Ai7o-125" value="" style="endArrow=none;html=1;rounded=0;" edge="1" parent="1">
          <mxGeometry width="50" height="50" relative="1" as="geometry">
            <mxPoint x="360" y="240" as="sourcePoint" />
            <mxPoint x="560" y="240" as="targetPoint" />
          </mxGeometry>
        </mxCell>
        <mxCell id="gX4xHvYDaLYZX3p_Ai7o-126" value="" style="endArrow=none;html=1;rounded=0;" edge="1" parent="1">
          <mxGeometry width="50" height="50" relative="1" as="geometry">
            <mxPoint x="360" y="260" as="sourcePoint" />
            <mxPoint x="560" y="260" as="targetPoint" />
          </mxGeometry>
        </mxCell>
        <mxCell id="gX4xHvYDaLYZX3p_Ai7o-127" value="" style="endArrow=none;html=1;rounded=0;" edge="1" parent="1">
          <mxGeometry width="50" height="50" relative="1" as="geometry">
            <mxPoint x="360" y="280" as="sourcePoint" />
            <mxPoint x="560" y="280" as="targetPoint" />
          </mxGeometry>
        </mxCell>
        <mxCell id="gX4xHvYDaLYZX3p_Ai7o-128" value="" style="endArrow=none;html=1;rounded=0;" edge="1" parent="1">
          <mxGeometry width="50" height="50" relative="1" as="geometry">
            <mxPoint x="360" y="300" as="sourcePoint" />
            <mxPoint x="560" y="300" as="targetPoint" />
          </mxGeometry>
        </mxCell>
        <mxCell id="gX4xHvYDaLYZX3p_Ai7o-129" value="" style="endArrow=none;html=1;rounded=0;" edge="1" parent="1">
          <mxGeometry width="50" height="50" relative="1" as="geometry">
            <mxPoint x="360" y="320" as="sourcePoint" />
            <mxPoint x="560" y="320" as="targetPoint" />
          </mxGeometry>
        </mxCell>
        <mxCell id="gX4xHvYDaLYZX3p_Ai7o-130" value="" style="endArrow=none;html=1;rounded=0;" edge="1" parent="1">
          <mxGeometry width="50" height="50" relative="1" as="geometry">
            <mxPoint x="360" y="340" as="sourcePoint" />
            <mxPoint x="560" y="340" as="targetPoint" />
          </mxGeometry>
        </mxCell>
        <mxCell id="gX4xHvYDaLYZX3p_Ai7o-131" value="" style="endArrow=none;html=1;rounded=0;" edge="1" parent="1">
          <mxGeometry width="50" height="50" relative="1" as="geometry">
            <mxPoint x="360" y="360" as="sourcePoint" />
            <mxPoint x="560" y="360" as="targetPoint" />
          </mxGeometry>
        </mxCell>
        <mxCell id="gX4xHvYDaLYZX3p_Ai7o-132" value="" style="endArrow=none;html=1;rounded=0;" edge="1" parent="1">
          <mxGeometry width="50" height="50" relative="1" as="geometry">
            <mxPoint x="360" y="380" as="sourcePoint" />
            <mxPoint x="560" y="380" as="targetPoint" />
          </mxGeometry>
        </mxCell>
        <mxCell id="gX4xHvYDaLYZX3p_Ai7o-133" value="" style="endArrow=none;html=1;rounded=0;" edge="1" parent="1">
          <mxGeometry width="50" height="50" relative="1" as="geometry">
            <mxPoint x="360" y="400" as="sourcePoint" />
            <mxPoint x="560" y="400" as="targetPoint" />
          </mxGeometry>
        </mxCell>
        <mxCell id="gX4xHvYDaLYZX3p_Ai7o-135" value="" style="endArrow=none;html=1;rounded=0;" edge="1" parent="1">
          <mxGeometry width="50" height="50" relative="1" as="geometry">
            <mxPoint x="360" y="200" as="sourcePoint" />
            <mxPoint x="360" y="400" as="targetPoint" />
          </mxGeometry>
        </mxCell>
        <mxCell id="gX4xHvYDaLYZX3p_Ai7o-141" value="" style="endArrow=none;html=1;rounded=0;" edge="1" parent="1">
          <mxGeometry width="50" height="50" relative="1" as="geometry">
            <mxPoint x="480" y="200" as="sourcePoint" />
            <mxPoint x="480" y="400" as="targetPoint" />
          </mxGeometry>
        </mxCell>
        <mxCell id="gX4xHvYDaLYZX3p_Ai7o-142" value="" style="endArrow=none;html=1;rounded=0;" edge="1" parent="1">
          <mxGeometry width="50" height="50" relative="1" as="geometry">
            <mxPoint x="500" y="200" as="sourcePoint" />
            <mxPoint x="500" y="400" as="targetPoint" />
          </mxGeometry>
        </mxCell>
        <mxCell id="gX4xHvYDaLYZX3p_Ai7o-143" value="" style="endArrow=none;html=1;rounded=0;" edge="1" parent="1">
          <mxGeometry width="50" height="50" relative="1" as="geometry">
            <mxPoint x="520" y="200" as="sourcePoint" />
            <mxPoint x="520" y="400" as="targetPoint" />
          </mxGeometry>
        </mxCell>
        <mxCell id="gX4xHvYDaLYZX3p_Ai7o-144" value="" style="endArrow=none;html=1;rounded=0;" edge="1" parent="1">
          <mxGeometry width="50" height="50" relative="1" as="geometry">
            <mxPoint x="540" y="200" as="sourcePoint" />
            <mxPoint x="540" y="400" as="targetPoint" />
          </mxGeometry>
        </mxCell>
        <mxCell id="gX4xHvYDaLYZX3p_Ai7o-146" value="" style="endArrow=none;html=1;rounded=0;" edge="1" parent="1">
          <mxGeometry width="50" height="50" relative="1" as="geometry">
            <mxPoint x="560" y="200" as="sourcePoint" />
            <mxPoint x="560" y="400" as="targetPoint" />
          </mxGeometry>
        </mxCell>
        <mxCell id="gX4xHvYDaLYZX3p_Ai7o-147" value="" style="endArrow=none;html=1;rounded=0;" edge="1" parent="1">
          <mxGeometry width="50" height="50" relative="1" as="geometry">
            <mxPoint x="380" y="200" as="sourcePoint" />
            <mxPoint x="380" y="400" as="targetPoint" />
          </mxGeometry>
        </mxCell>
        <mxCell id="gX4xHvYDaLYZX3p_Ai7o-148" value="" style="endArrow=none;html=1;rounded=0;" edge="1" parent="1">
          <mxGeometry width="50" height="50" relative="1" as="geometry">
            <mxPoint x="400" y="200" as="sourcePoint" />
            <mxPoint x="400" y="400" as="targetPoint" />
          </mxGeometry>
        </mxCell>
        <mxCell id="gX4xHvYDaLYZX3p_Ai7o-149" value="" style="endArrow=none;html=1;rounded=0;" edge="1" parent="1">
          <mxGeometry width="50" height="50" relative="1" as="geometry">
            <mxPoint x="420" y="200" as="sourcePoint" />
            <mxPoint x="420" y="400" as="targetPoint" />
          </mxGeometry>
        </mxCell>
        <mxCell id="gX4xHvYDaLYZX3p_Ai7o-150" value="" style="endArrow=none;html=1;rounded=0;" edge="1" parent="1">
          <mxGeometry width="50" height="50" relative="1" as="geometry">
            <mxPoint x="440" y="200" as="sourcePoint" />
            <mxPoint x="440" y="400" as="targetPoint" />
          </mxGeometry>
        </mxCell>
        <mxCell id="gX4xHvYDaLYZX3p_Ai7o-151" value="" style="endArrow=none;html=1;rounded=0;" edge="1" parent="1">
          <mxGeometry width="50" height="50" relative="1" as="geometry">
            <mxPoint x="460" y="200" as="sourcePoint" />
            <mxPoint x="460" y="400" as="targetPoint" />
          </mxGeometry>
        </mxCell>
        <mxCell id="gX4xHvYDaLYZX3p_Ai7o-152" value="" style="endArrow=classic;html=1;rounded=0;endSize=2;" edge="1" parent="1">
          <mxGeometry width="50" height="50" relative="1" as="geometry">
            <mxPoint x="340" y="180" as="sourcePoint" />
            <mxPoint x="340" y="240" as="targetPoint" />
          </mxGeometry>
        </mxCell>
        <mxCell id="gX4xHvYDaLYZX3p_Ai7o-153" value="" style="endArrow=classic;html=1;rounded=0;endSize=2;" edge="1" parent="1">
          <mxGeometry width="50" height="50" relative="1" as="geometry">
            <mxPoint x="340" y="180" as="sourcePoint" />
            <mxPoint x="400" y="180" as="targetPoint" />
          </mxGeometry>
        </mxCell>
        <mxCell id="gX4xHvYDaLYZX3p_Ai7o-154" value="L" style="text;html=1;align=center;verticalAlign=middle;resizable=0;points=[];autosize=1;strokeColor=none;fillColor=none;" vertex="1" parent="1">
          <mxGeometry x="315" y="185" width="30" height="30" as="geometry" />
        </mxCell>
        <mxCell id="gX4xHvYDaLYZX3p_Ai7o-155" value="R" style="text;html=1;align=center;verticalAlign=middle;resizable=0;points=[];autosize=1;strokeColor=none;fillColor=none;" vertex="1" parent="1">
          <mxGeometry x="345" y="155" width="30" height="30" as="geometry" />
        </mxCell>
        <mxCell id="gX4xHvYDaLYZX3p_Ai7o-156" value="&lt;font style=&quot;font-size: 10px;&quot;&gt;0&lt;/font&gt;" style="text;html=1;align=center;verticalAlign=middle;resizable=0;points=[];autosize=1;strokeColor=none;fillColor=none;fontSize=8;" vertex="1" parent="1">
          <mxGeometry x="335" y="195" width="30" height="30" as="geometry" />
        </mxCell>
        <mxCell id="gX4xHvYDaLYZX3p_Ai7o-157" value="&lt;font style=&quot;font-size: 10px;&quot;&gt;0&lt;/font&gt;" style="text;html=1;align=center;verticalAlign=middle;resizable=0;points=[];autosize=1;strokeColor=none;fillColor=none;fontSize=8;" vertex="1" parent="1">
          <mxGeometry x="355" y="176" width="30" height="30" as="geometry" />
        </mxCell>
        <mxCell id="gX4xHvYDaLYZX3p_Ai7o-158" value="&lt;span style=&quot;font-size: 10px;&quot;&gt;1&lt;/span&gt;" style="text;html=1;align=center;verticalAlign=middle;resizable=0;points=[];autosize=1;strokeColor=none;fillColor=none;fontSize=8;" vertex="1" parent="1">
          <mxGeometry x="375" y="176" width="30" height="30" as="geometry" />
        </mxCell>
        <mxCell id="gX4xHvYDaLYZX3p_Ai7o-159" value="&lt;font style=&quot;font-size: 10px;&quot;&gt;2&lt;/font&gt;" style="text;html=1;align=center;verticalAlign=middle;resizable=0;points=[];autosize=1;strokeColor=none;fillColor=none;fontSize=8;" vertex="1" parent="1">
          <mxGeometry x="395" y="176" width="30" height="30" as="geometry" />
        </mxCell>
        <mxCell id="gX4xHvYDaLYZX3p_Ai7o-160" value="&lt;font style=&quot;font-size: 10px;&quot;&gt;3&lt;/font&gt;" style="text;html=1;align=center;verticalAlign=middle;resizable=0;points=[];autosize=1;strokeColor=none;fillColor=none;fontSize=8;" vertex="1" parent="1">
          <mxGeometry x="415" y="175" width="30" height="30" as="geometry" />
        </mxCell>
        <mxCell id="gX4xHvYDaLYZX3p_Ai7o-161" value="&lt;font style=&quot;font-size: 10px;&quot;&gt;4&lt;/font&gt;" style="text;html=1;align=center;verticalAlign=middle;resizable=0;points=[];autosize=1;strokeColor=none;fillColor=none;fontSize=8;" vertex="1" parent="1">
          <mxGeometry x="435" y="175" width="30" height="30" as="geometry" />
        </mxCell>
        <mxCell id="gX4xHvYDaLYZX3p_Ai7o-162" value="&lt;font style=&quot;font-size: 10px;&quot;&gt;5&lt;/font&gt;" style="text;html=1;align=center;verticalAlign=middle;resizable=0;points=[];autosize=1;strokeColor=none;fillColor=none;fontSize=8;" vertex="1" parent="1">
          <mxGeometry x="454" y="174" width="30" height="30" as="geometry" />
        </mxCell>
        <mxCell id="gX4xHvYDaLYZX3p_Ai7o-163" value="&lt;font style=&quot;font-size: 10px;&quot;&gt;6&lt;/font&gt;" style="text;html=1;align=center;verticalAlign=middle;resizable=0;points=[];autosize=1;strokeColor=none;fillColor=none;fontSize=8;" vertex="1" parent="1">
          <mxGeometry x="473" y="174" width="30" height="30" as="geometry" />
        </mxCell>
        <mxCell id="gX4xHvYDaLYZX3p_Ai7o-164" value="&lt;font style=&quot;font-size: 10px;&quot;&gt;7&lt;/font&gt;" style="text;html=1;align=center;verticalAlign=middle;resizable=0;points=[];autosize=1;strokeColor=none;fillColor=none;fontSize=8;" vertex="1" parent="1">
          <mxGeometry x="494" y="174" width="30" height="30" as="geometry" />
        </mxCell>
        <mxCell id="gX4xHvYDaLYZX3p_Ai7o-165" value="&lt;font style=&quot;font-size: 10px;&quot;&gt;8&lt;/font&gt;" style="text;html=1;align=center;verticalAlign=middle;resizable=0;points=[];autosize=1;strokeColor=none;fillColor=none;fontSize=8;" vertex="1" parent="1">
          <mxGeometry x="513" y="173" width="30" height="30" as="geometry" />
        </mxCell>
        <mxCell id="gX4xHvYDaLYZX3p_Ai7o-166" value="&lt;font style=&quot;font-size: 10px;&quot;&gt;9&lt;/font&gt;" style="text;html=1;align=center;verticalAlign=middle;resizable=0;points=[];autosize=1;strokeColor=none;fillColor=none;fontSize=8;" vertex="1" parent="1">
          <mxGeometry x="533" y="173" width="30" height="30" as="geometry" />
        </mxCell>
        <mxCell id="gX4xHvYDaLYZX3p_Ai7o-168" value="&lt;font style=&quot;font-size: 10px;&quot;&gt;3&lt;/font&gt;" style="text;html=1;align=center;verticalAlign=middle;resizable=0;points=[];autosize=1;strokeColor=none;fillColor=none;fontSize=8;" vertex="1" parent="1">
          <mxGeometry x="335" y="254" width="30" height="30" as="geometry" />
        </mxCell>
        <mxCell id="gX4xHvYDaLYZX3p_Ai7o-169" value="&lt;font style=&quot;font-size: 10px;&quot;&gt;4&lt;/font&gt;" style="text;html=1;align=center;verticalAlign=middle;resizable=0;points=[];autosize=1;strokeColor=none;fillColor=none;fontSize=8;" vertex="1" parent="1">
          <mxGeometry x="335" y="275" width="30" height="30" as="geometry" />
        </mxCell>
        <mxCell id="gX4xHvYDaLYZX3p_Ai7o-170" value="&lt;font style=&quot;font-size: 10px;&quot;&gt;5&lt;/font&gt;" style="text;html=1;align=center;verticalAlign=middle;resizable=0;points=[];autosize=1;strokeColor=none;fillColor=none;fontSize=8;" vertex="1" parent="1">
          <mxGeometry x="335" y="295" width="30" height="30" as="geometry" />
        </mxCell>
        <mxCell id="gX4xHvYDaLYZX3p_Ai7o-171" value="&lt;font style=&quot;font-size: 10px;&quot;&gt;6&lt;/font&gt;" style="text;html=1;align=center;verticalAlign=middle;resizable=0;points=[];autosize=1;strokeColor=none;fillColor=none;fontSize=8;" vertex="1" parent="1">
          <mxGeometry x="335" y="315" width="30" height="30" as="geometry" />
        </mxCell>
        <mxCell id="gX4xHvYDaLYZX3p_Ai7o-172" value="&lt;font style=&quot;font-size: 10px;&quot;&gt;7&lt;/font&gt;" style="text;html=1;align=center;verticalAlign=middle;resizable=0;points=[];autosize=1;strokeColor=none;fillColor=none;fontSize=8;" vertex="1" parent="1">
          <mxGeometry x="334" y="337" width="30" height="30" as="geometry" />
        </mxCell>
        <mxCell id="gX4xHvYDaLYZX3p_Ai7o-173" value="&lt;font style=&quot;font-size: 10px;&quot;&gt;8&lt;/font&gt;" style="text;html=1;align=center;verticalAlign=middle;resizable=0;points=[];autosize=1;strokeColor=none;fillColor=none;fontSize=8;" vertex="1" parent="1">
          <mxGeometry x="334" y="354" width="30" height="30" as="geometry" />
        </mxCell>
        <mxCell id="gX4xHvYDaLYZX3p_Ai7o-174" value="&lt;font style=&quot;font-size: 10px;&quot;&gt;9&lt;/font&gt;" style="text;html=1;align=center;verticalAlign=middle;resizable=0;points=[];autosize=1;strokeColor=none;fillColor=none;fontSize=8;" vertex="1" parent="1">
          <mxGeometry x="334" y="375" width="30" height="30" as="geometry" />
        </mxCell>
        <mxCell id="gX4xHvYDaLYZX3p_Ai7o-175" value="&lt;span style=&quot;font-size: 10px;&quot;&gt;1&lt;/span&gt;" style="text;html=1;align=center;verticalAlign=middle;resizable=0;points=[];autosize=1;strokeColor=none;fillColor=none;fontSize=8;" vertex="1" parent="1">
          <mxGeometry x="336" y="215" width="30" height="30" as="geometry" />
        </mxCell>
        <mxCell id="gX4xHvYDaLYZX3p_Ai7o-176" value="&lt;font style=&quot;font-size: 10px;&quot;&gt;2&lt;/font&gt;" style="text;html=1;align=center;verticalAlign=middle;resizable=0;points=[];autosize=1;strokeColor=none;fillColor=none;fontSize=8;" vertex="1" parent="1">
          <mxGeometry x="336" y="235" width="30" height="30" as="geometry" />
        </mxCell>
        <mxCell id="gX4xHvYDaLYZX3p_Ai7o-181" value="" style="ellipse;whiteSpace=wrap;html=1;aspect=fixed;fontSize=10;labelBorderColor=none;fillColor=#97D077;strokeColor=none;" vertex="1" parent="1">
          <mxGeometry x="570" y="206" width="10" height="10" as="geometry" />
        </mxCell>
        <mxCell id="gX4xHvYDaLYZX3p_Ai7o-182" value="&lt;p&gt;&lt;font style=&quot;line-height: 0.6; font-size: 11px;&quot;&gt;已经初始化&lt;/font&gt;&lt;/p&gt;" style="text;html=1;align=center;verticalAlign=middle;resizable=0;points=[];autosize=1;strokeColor=none;fillColor=none;fontSize=7;" vertex="1" parent="1">
          <mxGeometry x="580" y="190" width="80" height="40" as="geometry" />
        </mxCell>
        <mxCell id="gX4xHvYDaLYZX3p_Ai7o-192" value="" style="ellipse;whiteSpace=wrap;html=1;aspect=fixed;fontSize=10;labelBorderColor=none;fillColor=#97D077;strokeColor=none;" vertex="1" parent="1">
          <mxGeometry x="385" y="206" width="10" height="10" as="geometry" />
        </mxCell>
        <mxCell id="gX4xHvYDaLYZX3p_Ai7o-193" value="" style="ellipse;whiteSpace=wrap;html=1;aspect=fixed;fontSize=10;labelBorderColor=none;fillColor=#97D077;strokeColor=none;" vertex="1" parent="1">
          <mxGeometry x="405" y="206" width="10" height="10" as="geometry" />
        </mxCell>
        <mxCell id="gX4xHvYDaLYZX3p_Ai7o-194" value="" style="ellipse;whiteSpace=wrap;html=1;aspect=fixed;fontSize=10;labelBorderColor=none;fillColor=#97D077;strokeColor=none;" vertex="1" parent="1">
          <mxGeometry x="403" y="223" width="10" height="10" as="geometry" />
        </mxCell>
        <mxCell id="gX4xHvYDaLYZX3p_Ai7o-195" value="" style="ellipse;whiteSpace=wrap;html=1;aspect=fixed;fontSize=10;labelBorderColor=none;fillColor=#97D077;strokeColor=none;" vertex="1" parent="1">
          <mxGeometry x="424" y="223" width="10" height="10" as="geometry" />
        </mxCell>
        <mxCell id="gX4xHvYDaLYZX3p_Ai7o-196" value="" style="ellipse;whiteSpace=wrap;html=1;aspect=fixed;fontSize=10;labelBorderColor=none;fillColor=#97D077;strokeColor=none;" vertex="1" parent="1">
          <mxGeometry x="424" y="244" width="10" height="10" as="geometry" />
        </mxCell>
        <mxCell id="gX4xHvYDaLYZX3p_Ai7o-197" value="" style="ellipse;whiteSpace=wrap;html=1;aspect=fixed;fontSize=10;labelBorderColor=none;fillColor=#97D077;strokeColor=none;" vertex="1" parent="1">
          <mxGeometry x="444" y="244" width="10" height="10" as="geometry" />
        </mxCell>
        <mxCell id="gX4xHvYDaLYZX3p_Ai7o-198" value="" style="ellipse;whiteSpace=wrap;html=1;aspect=fixed;fontSize=10;labelBorderColor=none;fillColor=#97D077;strokeColor=none;" vertex="1" parent="1">
          <mxGeometry x="442" y="262" width="10" height="10" as="geometry" />
        </mxCell>
        <mxCell id="gX4xHvYDaLYZX3p_Ai7o-199" value="" style="ellipse;whiteSpace=wrap;html=1;aspect=fixed;fontSize=10;labelBorderColor=none;fillColor=#97D077;strokeColor=none;" vertex="1" parent="1">
          <mxGeometry x="463" y="262" width="10" height="10" as="geometry" />
        </mxCell>
        <mxCell id="gX4xHvYDaLYZX3p_Ai7o-200" value="" style="ellipse;whiteSpace=wrap;html=1;aspect=fixed;fontSize=10;labelBorderColor=none;fillColor=#97D077;strokeColor=none;" vertex="1" parent="1">
          <mxGeometry x="465" y="285" width="10" height="10" as="geometry" />
        </mxCell>
        <mxCell id="gX4xHvYDaLYZX3p_Ai7o-201" value="" style="ellipse;whiteSpace=wrap;html=1;aspect=fixed;fontSize=10;labelBorderColor=none;fillColor=#97D077;strokeColor=none;" vertex="1" parent="1">
          <mxGeometry x="483" y="282" width="10" height="10" as="geometry" />
        </mxCell>
        <mxCell id="gX4xHvYDaLYZX3p_Ai7o-202" value="" style="ellipse;whiteSpace=wrap;html=1;aspect=fixed;fontSize=10;labelBorderColor=none;fillColor=#97D077;strokeColor=none;" vertex="1" parent="1">
          <mxGeometry x="505" y="305" width="10" height="10" as="geometry" />
        </mxCell>
        <mxCell id="gX4xHvYDaLYZX3p_Ai7o-203" value="" style="ellipse;whiteSpace=wrap;html=1;aspect=fixed;fontSize=10;labelBorderColor=none;fillColor=#97D077;strokeColor=none;" vertex="1" parent="1">
          <mxGeometry x="482" y="303" width="10" height="10" as="geometry" />
        </mxCell>
        <mxCell id="gX4xHvYDaLYZX3p_Ai7o-204" value="" style="ellipse;whiteSpace=wrap;html=1;aspect=fixed;fontSize=10;labelBorderColor=none;fillColor=#97D077;strokeColor=none;" vertex="1" parent="1">
          <mxGeometry x="525" y="325" width="10" height="10" as="geometry" />
        </mxCell>
        <mxCell id="gX4xHvYDaLYZX3p_Ai7o-205" value="" style="ellipse;whiteSpace=wrap;html=1;aspect=fixed;fontSize=10;labelBorderColor=none;fillColor=#97D077;strokeColor=none;" vertex="1" parent="1">
          <mxGeometry x="505" y="325" width="10" height="10" as="geometry" />
        </mxCell>
        <mxCell id="gX4xHvYDaLYZX3p_Ai7o-206" value="" style="ellipse;whiteSpace=wrap;html=1;aspect=fixed;fontSize=10;labelBorderColor=none;fillColor=#97D077;strokeColor=none;" vertex="1" parent="1">
          <mxGeometry x="544" y="345" width="10" height="10" as="geometry" />
        </mxCell>
        <mxCell id="gX4xHvYDaLYZX3p_Ai7o-207" value="" style="ellipse;whiteSpace=wrap;html=1;aspect=fixed;fontSize=10;labelBorderColor=none;fillColor=#97D077;strokeColor=none;" vertex="1" parent="1">
          <mxGeometry x="524" y="345" width="10" height="10" as="geometry" />
        </mxCell>
        <mxCell id="gX4xHvYDaLYZX3p_Ai7o-208" value="" style="ellipse;whiteSpace=wrap;html=1;aspect=fixed;fontSize=10;labelBorderColor=none;fillColor=#97D077;strokeColor=none;" vertex="1" parent="1">
          <mxGeometry x="544" y="364" width="10" height="10" as="geometry" />
        </mxCell>
        <mxCell id="gX4xHvYDaLYZX3p_Ai7o-210" value="" style="endArrow=none;html=1;rounded=0;fontSize=11;endSize=2;fontColor=#999999;" edge="1" parent="1">
          <mxGeometry width="50" height="50" relative="1" as="geometry">
            <mxPoint x="560" y="400" as="sourcePoint" />
            <mxPoint x="360" y="200" as="targetPoint" />
          </mxGeometry>
        </mxCell>
        <mxCell id="gX4xHvYDaLYZX3p_Ai7o-214" value="" style="endArrow=none;html=1;rounded=0;fontSize=11;fontColor=#999999;endSize=2;strokeColor=#050505;" edge="1" parent="1">
          <mxGeometry width="50" height="50" relative="1" as="geometry">
            <mxPoint x="538" y="399" as="sourcePoint" />
            <mxPoint x="360" y="221" as="targetPoint" />
          </mxGeometry>
        </mxCell>
        <mxCell id="gX4xHvYDaLYZX3p_Ai7o-215" value="" style="endArrow=none;html=1;rounded=0;fontSize=11;fontColor=#999999;endSize=2;strokeColor=#050505;" edge="1" parent="1">
          <mxGeometry width="50" height="50" relative="1" as="geometry">
            <mxPoint x="538.0000000000001" y="399" as="sourcePoint" />
            <mxPoint x="360" y="221.00000000000006" as="targetPoint" />
          </mxGeometry>
        </mxCell>
        <mxCell id="gX4xHvYDaLYZX3p_Ai7o-216" value="" style="endArrow=none;html=1;rounded=0;fontSize=11;fontColor=#999999;endSize=2;strokeColor=#050505;" edge="1" parent="1">
          <mxGeometry width="50" height="50" relative="1" as="geometry">
            <mxPoint x="521" y="399" as="sourcePoint" />
            <mxPoint x="360" y="240" as="targetPoint" />
          </mxGeometry>
        </mxCell>
        <mxCell id="gX4xHvYDaLYZX3p_Ai7o-217" value="" style="endArrow=none;html=1;rounded=0;fontSize=11;fontColor=#999999;endSize=2;strokeColor=#050505;" edge="1" parent="1">
          <mxGeometry width="50" height="50" relative="1" as="geometry">
            <mxPoint x="499" y="399" as="sourcePoint" />
            <mxPoint x="361" y="260" as="targetPoint" />
          </mxGeometry>
        </mxCell>
        <mxCell id="gX4xHvYDaLYZX3p_Ai7o-218" value="" style="endArrow=none;html=1;rounded=0;fontSize=11;fontColor=#999999;endSize=2;strokeColor=#050505;" edge="1" parent="1">
          <mxGeometry width="50" height="50" relative="1" as="geometry">
            <mxPoint x="479" y="399" as="sourcePoint" />
            <mxPoint x="361" y="280" as="targetPoint" />
          </mxGeometry>
        </mxCell>
        <mxCell id="gX4xHvYDaLYZX3p_Ai7o-219" value="" style="endArrow=none;html=1;rounded=0;fontSize=11;fontColor=#999999;endSize=2;strokeColor=#050505;" edge="1" parent="1">
          <mxGeometry width="50" height="50" relative="1" as="geometry">
            <mxPoint x="460" y="400" as="sourcePoint" />
            <mxPoint x="360" y="300" as="targetPoint" />
          </mxGeometry>
        </mxCell>
        <mxCell id="gX4xHvYDaLYZX3p_Ai7o-220" value="" style="endArrow=none;html=1;rounded=0;fontSize=11;fontColor=#999999;endSize=2;strokeColor=#050505;" edge="1" parent="1">
          <mxGeometry width="50" height="50" relative="1" as="geometry">
            <mxPoint x="441" y="400" as="sourcePoint" />
            <mxPoint x="360" y="320" as="targetPoint" />
          </mxGeometry>
        </mxCell>
        <mxCell id="gX4xHvYDaLYZX3p_Ai7o-222" value="" style="endArrow=none;html=1;rounded=0;fontSize=11;fontColor=#999999;endSize=2;strokeColor=#050505;" edge="1" parent="1">
          <mxGeometry width="50" height="50" relative="1" as="geometry">
            <mxPoint x="420" y="400" as="sourcePoint" />
            <mxPoint x="360" y="340" as="targetPoint" />
          </mxGeometry>
        </mxCell>
        <mxCell id="gX4xHvYDaLYZX3p_Ai7o-223" value="" style="endArrow=none;html=1;rounded=0;fontSize=11;fontColor=#999999;endSize=2;strokeColor=#050505;" edge="1" parent="1">
          <mxGeometry width="50" height="50" relative="1" as="geometry">
            <mxPoint x="400" y="399" as="sourcePoint" />
            <mxPoint x="360" y="360" as="targetPoint" />
          </mxGeometry>
        </mxCell>
        <mxCell id="gX4xHvYDaLYZX3p_Ai7o-225" value="" style="endArrow=none;html=1;rounded=0;fontSize=11;fontColor=#999999;endSize=2;strokeColor=#050505;" edge="1" parent="1">
          <mxGeometry width="50" height="50" relative="1" as="geometry">
            <mxPoint x="379" y="400" as="sourcePoint" />
            <mxPoint x="360" y="380" as="targetPoint" />
          </mxGeometry>
        </mxCell>
        <mxCell id="gX4xHvYDaLYZX3p_Ai7o-227" value="" style="ellipse;whiteSpace=wrap;html=1;aspect=fixed;fontSize=10;labelBorderColor=none;fillColor=#F80000;strokeColor=none;" vertex="1" parent="1">
          <mxGeometry x="570" y="230" width="10" height="10" as="geometry" />
        </mxCell>
        <mxCell id="gX4xHvYDaLYZX3p_Ai7o-228" value="目标位置 (1,8)" style="text;html=1;align=center;verticalAlign=middle;resizable=0;points=[];autosize=1;strokeColor=none;fillColor=none;fontSize=11;fontColor=#0D0D0D;" vertex="1" parent="1">
          <mxGeometry x="577" y="220" width="100" height="30" as="geometry" />
        </mxCell>
        <mxCell id="gX4xHvYDaLYZX3p_Ai7o-229" value="" style="ellipse;whiteSpace=wrap;html=1;aspect=fixed;fontSize=10;labelBorderColor=none;fillColor=#F80000;strokeColor=none;" vertex="1" parent="1">
          <mxGeometry x="525" y="225" width="10" height="10" as="geometry" />
        </mxCell>
        <mxCell id="gX4xHvYDaLYZX3p_Ai7o-230" value="&lt;font style=&quot;font-size: 11px;&quot;&gt;1&lt;/font&gt;" style="ellipse;whiteSpace=wrap;html=1;aspect=fixed;fontSize=7;labelBorderColor=none;fillColor=#FFCCCC;strokeColor=none;" vertex="1" parent="1">
          <mxGeometry x="409" y="228" width="10" height="10" as="geometry" />
        </mxCell>
        <mxCell id="gX4xHvYDaLYZX3p_Ai7o-231" value="&lt;font style=&quot;font-size: 11px;&quot;&gt;1&lt;/font&gt;" style="ellipse;whiteSpace=wrap;html=1;aspect=fixed;fontSize=7;labelBorderColor=none;fillColor=#FFCCCC;strokeColor=none;" vertex="1" parent="1">
          <mxGeometry x="525" y="245" width="10" height="10" as="geometry" />
        </mxCell>
        <mxCell id="gX4xHvYDaLYZX3p_Ai7o-232" value="&lt;font style=&quot;font-size: 11px;&quot;&gt;2&lt;/font&gt;" style="ellipse;whiteSpace=wrap;html=1;aspect=fixed;fontSize=7;labelBorderColor=none;fillColor=#FFCCCC;strokeColor=none;" vertex="1" parent="1">
          <mxGeometry x="428" y="227" width="10" height="10" as="geometry" />
        </mxCell>
        <mxCell id="gX4xHvYDaLYZX3p_Ai7o-233" value="&lt;font style=&quot;font-size: 11px;&quot;&gt;3&lt;/font&gt;" style="ellipse;whiteSpace=wrap;html=1;aspect=fixed;fontSize=7;labelBorderColor=none;fillColor=#FFCCCC;strokeColor=none;" vertex="1" parent="1">
          <mxGeometry x="443.5" y="225" width="10" height="10" as="geometry" />
        </mxCell>
        <mxCell id="gX4xHvYDaLYZX3p_Ai7o-234" value="&lt;font style=&quot;font-size: 11px;&quot;&gt;4&lt;/font&gt;" style="ellipse;whiteSpace=wrap;html=1;aspect=fixed;fontSize=7;labelBorderColor=none;fillColor=#FFCCCC;strokeColor=none;" vertex="1" parent="1">
          <mxGeometry x="463.5" y="225" width="10" height="10" as="geometry" />
        </mxCell>
        <mxCell id="gX4xHvYDaLYZX3p_Ai7o-235" value="&lt;font style=&quot;font-size: 11px;&quot;&gt;5&lt;/font&gt;" style="ellipse;whiteSpace=wrap;html=1;aspect=fixed;fontSize=7;labelBorderColor=none;fillColor=#FFCCCC;strokeColor=none;" vertex="1" parent="1">
          <mxGeometry x="483.5" y="225" width="10" height="10" as="geometry" />
        </mxCell>
        <mxCell id="gX4xHvYDaLYZX3p_Ai7o-238" value="&lt;font style=&quot;font-size: 11px;&quot;&gt;2&lt;/font&gt;" style="ellipse;whiteSpace=wrap;html=1;aspect=fixed;fontSize=7;labelBorderColor=none;fillColor=#FFCCCC;strokeColor=none;" vertex="1" parent="1">
          <mxGeometry x="525" y="265" width="10" height="10" as="geometry" />
        </mxCell>
        <mxCell id="gX4xHvYDaLYZX3p_Ai7o-239" value="&lt;font style=&quot;font-size: 11px;&quot;&gt;3&lt;/font&gt;" style="ellipse;whiteSpace=wrap;html=1;aspect=fixed;fontSize=7;labelBorderColor=none;fillColor=#FFCCCC;strokeColor=none;" vertex="1" parent="1">
          <mxGeometry x="525" y="285" width="10" height="10" as="geometry" />
        </mxCell>
        <mxCell id="gX4xHvYDaLYZX3p_Ai7o-240" value="&lt;font style=&quot;font-size: 11px;&quot;&gt;4&lt;/font&gt;" style="ellipse;whiteSpace=wrap;html=1;aspect=fixed;fontSize=7;labelBorderColor=none;fillColor=#FFCCCC;strokeColor=none;" vertex="1" parent="1">
          <mxGeometry x="525" y="305" width="10" height="10" as="geometry" />
        </mxCell>
        <mxCell id="gX4xHvYDaLYZX3p_Ai7o-241" value="&lt;font style=&quot;font-size: 11px;&quot;&gt;5&lt;/font&gt;" style="ellipse;whiteSpace=wrap;html=1;aspect=fixed;fontSize=7;labelBorderColor=none;fillColor=#FFCCCC;strokeColor=none;" vertex="1" parent="1">
          <mxGeometry x="529" y="327" width="10" height="10" as="geometry" />
        </mxCell>
        <mxCell id="gX4xHvYDaLYZX3p_Ai7o-242" value="&lt;font style=&quot;font-size: 11px;&quot;&gt;6&lt;/font&gt;" style="ellipse;whiteSpace=wrap;html=1;aspect=fixed;fontSize=7;labelBorderColor=none;fillColor=#FFCCCC;strokeColor=none;" vertex="1" parent="1">
          <mxGeometry x="529" y="348" width="10" height="10" as="geometry" />
        </mxCell>
        <mxCell id="gX4xHvYDaLYZX3p_Ai7o-249" value="&lt;font style=&quot;font-size: 11px;&quot;&gt;6&lt;/font&gt;" style="ellipse;whiteSpace=wrap;html=1;aspect=fixed;fontSize=7;labelBorderColor=none;fillColor=#FFCCCC;strokeColor=none;" vertex="1" parent="1">
          <mxGeometry x="505" y="225" width="10" height="10" as="geometry" />
        </mxCell>
        <mxCell id="gX4xHvYDaLYZX3p_Ai7o-250" value="&lt;font style=&quot;font-size: 11px;&quot;&gt;1&lt;/font&gt;" style="ellipse;whiteSpace=wrap;html=1;aspect=fixed;fontSize=7;labelBorderColor=none;fillColor=#FFCCCC;strokeColor=none;" vertex="1" parent="1">
          <mxGeometry x="590" y="250" width="10" height="10" as="geometry" />
        </mxCell>
        <mxCell id="gX4xHvYDaLYZX3p_Ai7o-251" value="&lt;p style=&quot;line-height: 0.4;&quot;&gt;&lt;font style=&quot;font-size: 11px; line-height: 1.2;&quot;&gt;依赖位置，数字表示对应&lt;/font&gt;&lt;/p&gt;" style="text;html=1;align=center;verticalAlign=middle;resizable=0;points=[];autosize=1;strokeColor=none;fillColor=none;fontSize=4;fontColor=#0D0D0D;" vertex="1" parent="1">
          <mxGeometry x="590" y="235" width="160" height="40" as="geometry" />
        </mxCell>
        <mxCell id="gX4xHvYDaLYZX3p_Ai7o-252" value="" style="ellipse;whiteSpace=wrap;html=1;aspect=fixed;fontSize=10;labelBorderColor=none;fillColor=#0000FF;strokeColor=none;" vertex="1" parent="1">
          <mxGeometry x="570" y="282" width="10" height="10" as="geometry" />
        </mxCell>
        <mxCell id="gX4xHvYDaLYZX3p_Ai7o-253" value="目标位置 (3,6)" style="text;html=1;align=center;verticalAlign=middle;resizable=0;points=[];autosize=1;strokeColor=none;fillColor=none;fontSize=11;fontColor=#0D0D0D;" vertex="1" parent="1">
          <mxGeometry x="577" y="272" width="100" height="30" as="geometry" />
        </mxCell>
        <mxCell id="gX4xHvYDaLYZX3p_Ai7o-254" value="&lt;font style=&quot;font-size: 11px;&quot;&gt;1&lt;/font&gt;" style="ellipse;whiteSpace=wrap;html=1;aspect=fixed;fontSize=7;labelBorderColor=none;fillColor=#CCCCFF;strokeColor=none;" vertex="1" parent="1">
          <mxGeometry x="590" y="302" width="10" height="10" as="geometry" />
        </mxCell>
        <mxCell id="gX4xHvYDaLYZX3p_Ai7o-255" value="&lt;p style=&quot;line-height: 0.4;&quot;&gt;&lt;font style=&quot;font-size: 11px; line-height: 1.2;&quot;&gt;依赖位置，数字表示对应&lt;/font&gt;&lt;/p&gt;" style="text;html=1;align=center;verticalAlign=middle;resizable=0;points=[];autosize=1;strokeColor=none;fillColor=none;fontSize=4;fontColor=#0D0D0D;" vertex="1" parent="1">
          <mxGeometry x="590" y="287" width="160" height="40" as="geometry" />
        </mxCell>
        <mxCell id="gX4xHvYDaLYZX3p_Ai7o-256" value="" style="ellipse;whiteSpace=wrap;html=1;aspect=fixed;fontSize=10;labelBorderColor=none;fillColor=#0000FF;strokeColor=none;" vertex="1" parent="1">
          <mxGeometry x="485" y="265" width="10" height="10" as="geometry" />
        </mxCell>
        <mxCell id="gX4xHvYDaLYZX3p_Ai7o-257" value="&lt;font style=&quot;font-size: 11px;&quot;&gt;1&lt;/font&gt;" style="ellipse;whiteSpace=wrap;html=1;aspect=fixed;fontSize=7;labelBorderColor=none;fillColor=#CCCCFF;strokeColor=none;" vertex="1" parent="1">
          <mxGeometry x="448" y="267" width="10" height="10" as="geometry" />
        </mxCell>
        <mxCell id="gX4xHvYDaLYZX3p_Ai7o-258" value="&lt;font style=&quot;font-size: 11px;&quot;&gt;2&lt;/font&gt;" style="ellipse;whiteSpace=wrap;html=1;aspect=fixed;fontSize=7;labelBorderColor=none;fillColor=#CCCCFF;strokeColor=none;" vertex="1" parent="1">
          <mxGeometry x="468" y="267" width="10" height="10" as="geometry" />
        </mxCell>
        <mxCell id="gX4xHvYDaLYZX3p_Ai7o-259" value="&lt;font style=&quot;font-size: 11px;&quot;&gt;1&lt;/font&gt;" style="ellipse;whiteSpace=wrap;html=1;aspect=fixed;fontSize=7;labelBorderColor=none;fillColor=#CCCCFF;strokeColor=none;" vertex="1" parent="1">
          <mxGeometry x="489" y="287" width="10" height="10" as="geometry" />
        </mxCell>
        <mxCell id="gX4xHvYDaLYZX3p_Ai7o-261" value="&lt;font style=&quot;font-size: 11px;&quot;&gt;2&lt;/font&gt;" style="ellipse;whiteSpace=wrap;html=1;aspect=fixed;fontSize=7;labelBorderColor=none;fillColor=#CCCCFF;strokeColor=none;" vertex="1" parent="1">
          <mxGeometry x="488" y="308" width="10" height="10" as="geometry" />
        </mxCell>
      </root>
    </mxGraphModel>
  </diagram>
</mxfile>
